<svg width="500" height="500" viewBox="0 0 500 500" fill="none" xmlns="http://www.w3.org/2000/svg">
<path d="M92.637 317.145L77.804 317.424L70.289 317.536C67.779 317.583 65.257 317.573 62.74 317.591L62.296 317.594L62.294 317.145L62.24 304.512L62.238 304.01L62.74 304.012L77.688 304.075C82.671 304.08 87.653 304.187 92.636 304.239L92.911 304.242L92.909 304.512C92.89 306.651 92.823 308.78 92.778 310.887L92.637 317.145ZM92.637 317.145L92.495 310.77C92.45 308.666 92.383 306.584 92.364 304.512L92.637 304.785C87.654 304.836 82.672 304.944 77.689 304.949L62.741 305.012L63.24 304.513L63.186 317.146L62.74 316.7C65.206 316.718 67.667 316.708 70.139 316.755L77.572 316.867L92.637 317.145Z" fill="#EBEBEB"/>
<path d="M75.959 333.075L61.126 333.354L53.611 333.466C51.101 333.513 48.579 333.503 46.062 333.521L45.618 333.524L45.616 333.075L45.562 320.442L45.56 319.94L46.062 319.942L61.01 320.005C65.993 320.01 70.975 320.117 75.958 320.169L76.233 320.172L76.231 320.442C76.212 322.581 76.145 324.71 76.1 326.817L75.959 333.075ZM75.959 333.075L75.817 326.7C75.772 324.597 75.705 322.514 75.686 320.442L75.959 320.715C70.976 320.766 65.994 320.874 61.011 320.879L46.063 320.942L46.562 320.443L46.508 333.076L46.062 332.63C48.528 332.648 50.989 332.638 53.462 332.685L60.895 332.797L75.959 333.075Z" fill="#EBEBEB"/>
<path d="M75.959 59.714L61.126 59.993L53.611 60.105C51.101 60.152 48.579 60.142 46.062 60.16L45.618 60.163L45.616 59.714L45.562 47.081L45.56 46.579L46.062 46.581L61.01 46.644C65.993 46.649 70.975 46.756 75.958 46.808L76.233 46.811L76.231 47.081C76.212 49.22 76.145 51.349 76.1 53.456L75.959 59.714ZM75.959 59.714L75.817 53.339C75.772 51.236 75.705 49.153 75.686 47.081L75.959 47.354C70.976 47.405 65.994 47.513 61.011 47.518L46.063 47.58L46.562 47.081L46.508 59.714L46.062 59.268C48.528 59.286 50.989 59.276 53.462 59.323L60.895 59.435L75.959 59.714Z" fill="#EBEBEB"/>
<path d="M453.937 59.714L439.104 59.993L431.589 60.105C429.079 60.152 426.557 60.142 424.04 60.16L423.596 60.163L423.594 59.714L423.54 47.081L423.538 46.579L424.04 46.581L438.988 46.644C443.971 46.649 448.953 46.756 453.936 46.808L454.211 46.811L454.209 47.081C454.19 49.22 454.123 51.349 454.078 53.456L453.937 59.714ZM453.937 59.714L453.795 53.339C453.75 51.236 453.683 49.153 453.664 47.081L453.937 47.354C448.954 47.405 443.971 47.513 438.989 47.518L424.041 47.581L424.54 47.082L424.486 59.715L424.041 59.269C426.507 59.287 428.968 59.277 431.441 59.324L438.874 59.436L453.937 59.714Z" fill="#EBEBEB"/>
<path d="M437.26 75.644L422.427 75.923L414.912 76.035C412.402 76.082 409.88 76.072 407.363 76.09L406.919 76.093L406.917 75.644L406.863 63.011L406.861 62.509L407.363 62.511L422.311 62.574C427.294 62.579 432.276 62.687 437.259 62.738L437.534 62.741L437.532 63.011C437.513 65.15 437.446 67.279 437.401 69.386L437.26 75.644ZM437.26 75.644L437.118 69.269C437.073 67.166 437.006 65.083 436.987 63.011L437.26 63.284C432.277 63.335 427.295 63.443 422.312 63.448L407.364 63.511L407.863 63.012L407.809 75.645L407.363 75.199C409.829 75.217 412.29 75.207 414.763 75.254L422.196 75.366L437.26 75.644Z" fill="#EBEBEB"/>
<path d="M356.142 193.693L341.309 193.972L333.794 194.084C331.284 194.131 328.762 194.121 326.245 194.139L325.801 194.142L325.799 193.693L325.745 181.06L325.743 180.558L326.245 180.56L341.193 180.623C346.176 180.628 351.158 180.736 356.141 180.787L356.416 180.79L356.414 181.06C356.395 183.199 356.328 185.328 356.283 187.435L356.142 193.693ZM356.142 193.693L356 187.317C355.955 185.214 355.888 183.131 355.869 181.059L356.142 181.332C351.159 181.383 346.177 181.491 341.194 181.496L326.246 181.559L326.745 181.06L326.691 193.693L326.245 193.247C328.711 193.265 331.172 193.255 333.645 193.302L341.078 193.414L356.142 193.693Z" fill="#EBEBEB"/>
<path d="M339.465 209.622L324.632 209.901L317.117 210.013C314.607 210.06 312.085 210.05 309.568 210.068L309.124 210.071L309.122 209.622L309.068 196.989L309.066 196.487L309.568 196.489L324.516 196.552C329.499 196.557 334.481 196.665 339.464 196.716L339.739 196.719L339.737 196.989C339.718 199.128 339.651 201.257 339.606 203.364L339.465 209.622ZM339.465 209.622L339.323 203.247C339.278 201.144 339.211 199.061 339.192 196.989L339.465 197.262C334.482 197.313 329.5 197.421 324.517 197.426L309.569 197.489L310.068 196.99L310.014 209.623L309.568 209.177C312.034 209.195 314.495 209.185 316.968 209.232L324.401 209.344L339.465 209.622Z" fill="#EBEBEB"/>
<path d="M322.854 193.693L308.021 193.972L300.506 194.084C297.996 194.131 295.474 194.121 292.957 194.139L292.513 194.142L292.511 193.693L292.457 181.06L292.455 180.558L292.957 180.56L307.905 180.623C312.888 180.628 317.871 180.736 322.853 180.787L323.128 180.79L323.126 181.06C323.107 183.199 323.04 185.328 322.995 187.435L322.854 193.693ZM322.854 193.693L322.712 187.318C322.667 185.215 322.6 183.132 322.581 181.06L322.854 181.333C317.871 181.384 312.889 181.492 307.906 181.497L292.958 181.56L293.457 181.061L293.403 193.694L292.957 193.248C295.424 193.266 297.884 193.256 300.357 193.303L307.79 193.415L322.854 193.693Z" fill="#EBEBEB"/>
<path d="M453.937 333.075L439.104 333.354L431.589 333.466C429.079 333.513 426.557 333.503 424.04 333.521L423.596 333.524L423.594 333.075L423.54 320.442L423.538 319.94L424.04 319.942L438.988 320.005C443.971 320.01 448.953 320.117 453.936 320.169L454.211 320.172L454.209 320.442C454.19 322.581 454.123 324.71 454.078 326.817L453.937 333.075ZM453.937 333.075L453.795 326.7C453.75 324.597 453.683 322.514 453.664 320.442L453.937 320.715C448.954 320.766 443.971 320.874 438.989 320.879L424.041 320.942L424.54 320.443L424.486 333.076L424.041 332.63C426.507 332.648 428.968 332.638 431.441 332.685L438.874 332.797L453.937 333.075Z" fill="#EBEBEB"/>
<path d="M184.412 148.219L169.579 148.498L162.064 148.61C159.554 148.657 157.032 148.647 154.515 148.665L154.071 148.668L154.069 148.219L154.015 135.586L154.013 135.084L154.515 135.086L169.463 135.149C174.446 135.154 179.428 135.262 184.411 135.313L184.686 135.316L184.684 135.586C184.665 137.725 184.598 139.854 184.553 141.961L184.412 148.219ZM184.412 148.219L184.27 141.844C184.225 139.741 184.158 137.658 184.139 135.586L184.412 135.859C179.429 135.91 174.447 136.018 169.464 136.023L154.516 136.086L155.015 135.587L154.961 148.22L154.515 147.774C156.981 147.792 159.442 147.782 161.915 147.829L169.348 147.941L184.412 148.219Z" fill="#EBEBEB"/>
<path d="M46.5 355.612H188.875L193.454 265.271H41.92L46.5 355.612Z" fill="#EBEBEB"/>
<path d="M178.387 306.57H53.104L51.384 275.317H180.394L178.387 306.57ZM54.05 305.57H177.449L179.327 276.317H52.44L54.05 305.57Z" fill="#DBDBDB"/>
<path d="M176.688 342.651H56.709L55.306 314.452H178.45L176.688 342.651ZM57.661 341.651H175.749L177.386 315.452H56.357L57.661 341.651Z" fill="#DBDBDB"/>
<path d="M130.116 294.289H103.634L102.672 286.836H131.079L130.116 294.289ZM104.513 293.289H129.238L129.942 287.836H103.81L104.513 293.289Z" fill="#DBDBDB"/>
<path d="M130.116 332.278H103.634L102.672 324.825H131.079L130.116 332.278ZM104.513 331.278H129.238L129.942 325.825H103.81L104.513 331.278Z" fill="#DBDBDB"/>
<path d="M66.244 355.612L64.862 365.454L62.081 385.229H56.644V355.612H66.244Z" fill="#EBEBEB"/>
<path d="M66.244 355.612L64.862 365.454H56.644V355.612H66.244Z" fill="#DBDBDB"/>
<path d="M169.13 355.612L170.512 365.454L173.293 385.229H178.73V355.612H169.13Z" fill="#EBEBEB"/>
<path d="M169.13 355.612L170.512 365.454H178.73V355.612H169.13Z" fill="#DBDBDB"/>
<path d="M449.612 239.073V157.099H390.436V239.073H449.612Z" fill="#EBEBEB"/>
<path d="M441.876 231.337V164.836H398.173V231.337H441.876Z" fill="white"/>
<path d="M441.878 164.836H398.174V231.339H441.878V164.836Z" fill="white"/>
<g opacity="0.2">
<path d="M436.27 231.339H422.538L398.174 206.975V193.243L436.27 231.339Z" fill="#EBEBEB"/>
<path d="M441.878 195.918L410.789 164.836H415.318L441.878 191.404V195.918Z" fill="#EBEBEB"/>
<path d="M441.878 176.858L429.856 164.836H431.361L441.878 175.354V176.858Z" fill="#EBEBEB"/>
<path d="M413.715 231.339H412.202L398.174 217.31V215.798L413.715 231.339Z" fill="#EBEBEB"/>
<path d="M441.878 205.394L401.32 164.836H402.832L441.878 203.89V205.394Z" fill="#EBEBEB"/>
</g>
<path d="M401.32 164.837H398.174V231.337H401.32V164.837Z" fill="#DBDBDB"/>
<path d="M452.758 157.099H449.612V239.073H452.758V157.099Z" fill="#DBDBDB"/>
<path d="M413.715 130.365V48.3913L354.539 48.3913V130.365H413.715Z" fill="#EBEBEB"/>
<path d="M405.978 122.628V56.1273L362.275 56.1273V122.628L405.978 122.628Z" fill="white"/>
<g opacity="0.2">
<path d="M405.981 104.173L362.277 60.469V56.129H371.67L405.981 90.441V104.173Z" fill="#EBEBEB"/>
<path d="M385.729 122.632H371.989L362.277 112.92V99.1801L385.729 122.632Z" fill="#EBEBEB"/>
<path d="M405.981 64.701L397.409 56.129H401.923L405.981 60.187V64.701Z" fill="#EBEBEB"/>
<path d="M401.262 122.632H399.749L362.277 85.159V83.647L401.262 122.632Z" fill="#EBEBEB"/>
<path d="M405.981 85.881L376.229 56.129H377.741L405.981 84.369V85.881Z" fill="#EBEBEB"/>
</g>
<path d="M365.423 56.129H362.277V122.629H365.423V56.129Z" fill="#DBDBDB"/>
<path d="M416.861 48.391H413.715V130.365H416.861V48.391Z" fill="#DBDBDB"/>
<path d="M43.374 385.215L95.03 384.972L146.687 384.884L250 384.716L353.313 384.883L404.969 384.971L456.626 385.215L404.969 385.46L353.313 385.548L250 385.714L146.687 385.547L95.03 385.458L43.374 385.215Z" fill="#263238"/>
<path d="M446.522 298.975C434.747 314.922 422.47 333.429 419.48 353.428C419.444 353.731 419.929 353.829 419.999 353.529C421.366 348.044 423.095 342.718 425.206 337.517C432.947 335.387 440.545 333.637 444.611 325.953C448.757 318.054 448.23 307.756 447.442 299.153C447.387 298.691 446.762 298.668 446.522 298.975Z" fill="#FF6E6A"/>
<path d="M425.323 337.366C430.613 325.496 437.404 313.577 446.035 303.816C446.093 303.751 446.184 303.845 446.13 303.911C440.479 310.863 436.185 318.434 431.991 326.137C435.89 322.179 440.162 318.634 443.855 314.436C443.927 314.354 444.042 314.473 443.973 314.555C440.306 318.955 436.3 323.737 431.524 326.994C430.241 329.357 428.95 331.729 427.64 334.099C427.961 333.92 428.292 333.76 428.621 333.597C428.679 333.568 428.73 333.654 428.672 333.684C428.307 333.868 427.947 334.062 427.571 334.222C426.95 335.344 426.336 336.466 425.698 337.586C425.557 337.836 425.211 337.617 425.323 337.366Z" fill="#263238"/>
<path d="M429.258 333.225C432.414 331.415 435.457 329.471 438.297 327.191C438.374 327.129 438.486 327.236 438.407 327.302C435.618 329.663 432.645 331.777 429.388 333.447C429.241 333.523 429.113 333.308 429.258 333.225Z" fill="#263238"/>
<path d="M418.118 350.455C418.142 350.697 418.554 350.693 418.548 350.435C418.609 343.849 418.554 337.233 418.653 330.618C420.34 327.213 423.962 325.329 426.48 322.6C428.296 320.631 429.849 318.41 431.177 316.06C434.291 310.488 435.977 304.223 436.626 297.892C437.321 290.847 434.648 267.602 431.679 268.409C430.139 268.827 425.156 280.341 423.834 284.147C421.669 290.409 420.146 296.897 419.147 303.446C416.739 318.945 416.94 334.859 418.118 350.455Z" fill="#FF6E6A"/>
<path d="M418.071 322.045C418.081 322.037 418.091 322.028 418.101 322.019C418.462 313.686 420.339 305.271 422.096 297.189C423.989 288.482 426.202 280.284 430.683 272.518C430.766 272.374 430.98 272.501 430.905 272.648C427.856 278.656 425.676 285.034 424.007 291.585C424.307 291.115 424.671 290.67 424.984 290.227C425.107 290.053 425.395 290.215 425.274 290.396C424.835 291.052 424.438 291.817 423.874 292.373C423.855 292.391 423.835 292.394 423.816 292.4C422.274 298.623 421.166 304.989 420.219 311.339C420.29 311.259 420.358 311.172 420.43 311.094C420.478 311.042 420.56 311.108 420.527 311.168C420.41 311.379 420.278 311.588 420.149 311.798C419.672 315.021 419.229 318.238 418.784 321.426C424.523 316.521 429.424 310.739 432.188 303.616C432.201 303.583 432.255 303.597 432.242 303.631C429.534 311.02 425.265 317.589 418.693 322.072C418.573 322.931 418.453 323.791 418.331 324.645C418.306 324.823 418.023 324.776 418.023 324.603C418.026 323.844 418.062 323.083 418.092 322.322C418.01 322.25 417.971 322.128 418.071 322.045Z" fill="#263238"/>
<path d="M420.774 309.971C425.159 303.426 429.256 297.069 432.465 289.835C432.5 289.755 432.639 289.812 432.608 289.895C429.904 297.083 426.116 304.367 420.994 310.141C420.889 310.258 420.685 310.103 420.774 309.971Z" fill="#263238"/>
<path d="M426.602 288.218C428.419 285.004 430.335 281.875 432.044 278.598C432.092 278.507 432.218 278.587 432.179 278.677C430.744 282.027 429.03 285.429 426.882 288.382C426.762 288.547 426.497 288.404 426.602 288.218Z" fill="#263238"/>
<path d="M425.892 289.616C425.928 289.616 425.928 289.672 425.892 289.672C425.856 289.672 425.856 289.616 425.892 289.616Z" fill="#263238"/>
<path d="M413.66 331.409C413.548 335.773 413.076 340.137 412.121 344.384C412.188 344.853 412.256 345.321 412.325 345.804C413.701 341.077 414.419 336.232 414.646 331.341C414.721 331.205 414.752 331.059 414.666 330.894C414.666 330.894 414.666 330.894 414.665 330.88C414.914 324.349 414.308 317.746 413.211 311.284C411.172 299.181 406.716 287.565 398.275 278.494C398.008 278.214 397.474 278.359 397.343 278.686C393.937 287.347 395.126 297.681 398.027 306.322C399.606 310.976 401.859 315.446 404.721 319.447C407.617 323.518 411.308 326.963 413.66 331.409Z" fill="#FF6E6A"/>
<path d="M399.274 282.548C407.273 295.531 412.84 310.924 413.52 326.261C413.532 326.532 413.075 326.605 413.037 326.326C412.847 324.948 412.637 323.582 412.416 322.222C412.411 322.218 412.407 322.221 412.402 322.217C409.092 319.047 405.695 315.703 403.325 311.742C403.284 311.673 403.384 311.591 403.439 311.654C406.318 314.945 409.005 318.316 412.256 321.25C411.683 317.859 411.005 314.522 410.201 311.234C409.987 310.988 409.778 310.737 409.568 310.49C409.429 310.327 409.661 310.09 409.805 310.252C409.868 310.323 409.933 310.394 409.997 310.465C408.864 305.95 407.48 301.53 405.814 297.186C403.777 294.757 401.501 292.657 400.017 289.731C399.981 289.66 400.078 289.605 400.123 289.669C401.316 291.342 402.469 293.026 403.823 294.579C404.362 295.197 404.954 295.776 405.513 296.38C403.693 291.744 401.533 287.197 398.964 282.728C398.85 282.528 399.154 282.352 399.274 282.548Z" fill="#263238"/>
<path d="M400.891 298.563C403.477 302.043 406.424 305.363 408.827 308.96C408.896 309.063 408.746 309.169 408.66 309.089C405.571 306.192 402.958 302.235 400.717 298.665C400.647 298.553 400.816 298.462 400.891 298.563Z" fill="#263238"/>
<path d="M409.19 309.766L409.3 309.876C409.376 309.953 409.258 310.071 409.182 309.995L409.072 309.885C408.994 309.808 409.113 309.689 409.19 309.766Z" fill="#263238"/>
<path d="M386.741 307.506C387.384 314.186 390.898 322.165 395.182 327.311C397.081 329.587 399.385 331.329 402.027 332.653C404.992 334.12 408.096 335.809 411.164 337.013C412.598 340.673 413.695 344.507 414.398 348.503C414.497 348.169 414.595 347.82 414.694 347.485C412.725 330.573 401.782 316.119 387.784 306.839C387.281 306.506 386.685 306.935 386.741 307.506Z" fill="#FF6E6A"/>
<path d="M391.577 312.503C391.479 312.416 391.612 312.239 391.719 312.318C399.137 317.813 405.821 325.826 409.555 334.3C409.657 334.531 409.339 334.734 409.207 334.503C408.556 333.363 407.893 332.254 407.218 331.165C407.214 331.164 407.212 331.167 407.208 331.167C404.013 330.565 400.987 328.317 398.615 326.182C398.551 326.124 398.645 326.03 398.71 326.087C399.948 327.178 401.277 328.177 402.753 328.926C404.055 329.587 405.457 330.005 406.813 330.534C405.629 328.654 404.394 326.852 403.106 325.104C399.667 323.933 396.394 321.821 393.504 319.706C393.413 319.64 393.493 319.491 393.594 319.551C396.54 321.324 399.444 322.884 402.519 324.322C400.582 321.756 398.485 319.326 396.218 316.976C395.132 316.403 394.031 315.826 392.978 315.213C392.892 315.163 392.948 315.017 393.047 315.049C393.885 315.328 394.739 315.767 395.533 316.27C394.272 314.994 392.97 313.733 391.577 312.503Z" fill="#263238"/>
<path d="M391.875 318.342C392.068 318.465 392.243 318.576 392.414 318.726C392.465 318.772 392.4 318.837 392.346 318.814C392.141 318.725 391.973 318.616 391.785 318.496C391.688 318.435 391.777 318.28 391.875 318.342Z" fill="#263238"/>
<path d="M436.54 385.127H398.183L401.28 350.196L401.959 342.492H432.764L433.444 350.196L436.54 385.127Z" fill="#455A64"/>
<path d="M433.444 350.196H401.28L401.959 342.492H432.764L433.444 350.196Z" fill="#263238"/>
<path d="M434.599 337.107H400.124V344.731H434.599V337.107Z" fill="#455A64"/>
<path d="M250 423.787C293.022 423.787 327.898 417.995 327.898 410.851C327.898 403.707 293.022 397.915 250 397.915C206.978 397.915 172.102 403.707 172.102 410.851C172.102 417.995 206.978 423.787 250 423.787Z" fill="#EBEBEB"/>
<path d="M199.651 445H198.358L202.097 434.818H203.369L207.108 445H205.815L202.773 436.429H202.693L199.651 445ZM200.128 441.023H205.338V442.116H200.128V441.023ZM209.708 440.406V445H208.535V437.364H209.668V438.557H209.768C209.947 438.169 210.219 437.857 210.583 437.622C210.948 437.384 211.418 437.264 211.995 437.264C212.512 437.264 212.964 437.37 213.352 437.582C213.74 437.791 214.042 438.109 214.257 438.537C214.473 438.961 214.58 439.498 214.58 440.148V445H213.407V440.227C213.407 439.627 213.251 439.16 212.94 438.825C212.628 438.487 212.201 438.318 211.657 438.318C211.282 438.318 210.948 438.399 210.653 438.562C210.361 438.724 210.131 438.961 209.962 439.273C209.793 439.584 209.708 439.962 209.708 440.406ZM223.863 445.159C223.128 445.159 222.493 444.997 221.959 444.672C221.429 444.344 221.02 443.886 220.731 443.3C220.446 442.71 220.304 442.024 220.304 441.241C220.304 440.459 220.446 439.77 220.731 439.173C221.02 438.573 221.421 438.106 221.934 437.771C222.452 437.433 223.055 437.264 223.744 437.264C224.142 437.264 224.535 437.33 224.922 437.463C225.31 437.596 225.663 437.811 225.981 438.109C226.3 438.404 226.553 438.795 226.742 439.283C226.931 439.77 227.025 440.37 227.025 441.082V441.58H221.139V440.565H225.832C225.832 440.134 225.746 439.75 225.574 439.412C225.405 439.074 225.163 438.807 224.848 438.612C224.536 438.416 224.168 438.318 223.744 438.318C223.277 438.318 222.872 438.434 222.531 438.666C222.193 438.895 221.933 439.193 221.751 439.561C221.568 439.929 221.477 440.323 221.477 440.744V441.42C221.477 441.997 221.577 442.486 221.775 442.887C221.978 443.285 222.258 443.588 222.616 443.797C222.974 444.002 223.39 444.105 223.863 444.105C224.172 444.105 224.45 444.062 224.699 443.976C224.951 443.886 225.168 443.754 225.35 443.578C225.532 443.399 225.673 443.177 225.773 442.912L226.906 443.23C226.787 443.615 226.586 443.953 226.305 444.244C226.023 444.533 225.675 444.758 225.26 444.92C224.846 445.08 224.381 445.159 223.863 445.159ZM228.81 445V437.364H229.944V438.517H230.023C230.162 438.139 230.414 437.833 230.779 437.597C231.144 437.362 231.555 437.244 232.012 437.244C232.098 437.244 232.206 437.246 232.335 437.249C232.464 437.253 232.562 437.258 232.628 437.264V438.457C232.589 438.447 232.497 438.433 232.355 438.413C232.216 438.389 232.068 438.378 231.912 438.378C231.541 438.378 231.21 438.456 230.918 438.612C230.63 438.764 230.401 438.976 230.232 439.248C230.066 439.516 229.983 439.823 229.983 440.168V445H228.81ZM234.019 445V437.364H235.153V438.517H235.232C235.371 438.139 235.623 437.833 235.988 437.597C236.353 437.362 236.763 437.244 237.221 437.244C237.307 437.244 237.415 437.246 237.544 437.249C237.673 437.253 237.771 437.258 237.837 437.264V438.457C237.798 438.447 237.706 438.433 237.564 438.413C237.425 438.389 237.277 438.378 237.121 438.378C236.75 438.378 236.419 438.456 236.127 438.612C235.839 438.764 235.61 438.976 235.441 439.248C235.275 439.516 235.192 439.823 235.192 440.168V445H234.019ZM242.098 445.159C241.409 445.159 240.804 444.995 240.283 444.667C239.766 444.339 239.362 443.88 239.07 443.29C238.782 442.7 238.638 442.01 238.638 441.222C238.638 440.426 238.782 439.732 239.07 439.138C239.362 438.545 239.766 438.085 240.283 437.756C240.804 437.428 241.409 437.264 242.098 437.264C242.787 437.264 243.391 437.428 243.908 437.756C244.428 438.085 244.832 438.545 245.121 439.138C245.412 439.732 245.558 440.426 245.558 441.222C245.558 442.01 245.412 442.7 245.121 443.29C244.832 443.88 244.428 444.339 243.908 444.667C243.391 444.995 242.787 445.159 242.098 445.159ZM242.098 444.105C242.622 444.105 243.053 443.971 243.391 443.702C243.729 443.434 243.979 443.081 244.141 442.643C244.304 442.206 244.385 441.732 244.385 441.222C244.385 440.711 244.304 440.236 244.141 439.795C243.979 439.354 243.729 438.998 243.391 438.726C243.053 438.454 242.622 438.318 242.098 438.318C241.574 438.318 241.143 438.454 240.805 438.726C240.467 438.998 240.217 439.354 240.055 439.795C239.892 440.236 239.811 440.711 239.811 441.222C239.811 441.732 239.892 442.206 240.055 442.643C240.217 443.081 240.467 443.434 240.805 443.702C241.143 443.971 241.574 444.105 242.098 444.105ZM247.349 445V437.364H248.483V438.517H248.562C248.702 438.139 248.953 437.833 249.318 437.597C249.683 437.362 250.094 437.244 250.551 437.244C250.637 437.244 250.745 437.246 250.874 437.249C251.003 437.253 251.101 437.258 251.167 437.264V438.457C251.128 438.447 251.037 438.433 250.894 438.413C250.755 438.389 250.607 438.378 250.452 438.378C250.08 438.378 249.749 438.456 249.457 438.612C249.169 438.764 248.94 438.976 248.771 439.248C248.605 439.516 248.523 439.823 248.523 440.168V445H247.349ZM259.598 445.159C258.909 445.159 258.304 444.995 257.783 444.667C257.266 444.339 256.862 443.88 256.57 443.29C256.282 442.7 256.138 442.01 256.138 441.222C256.138 440.426 256.282 439.732 256.57 439.138C256.862 438.545 257.266 438.085 257.783 437.756C258.304 437.428 258.909 437.264 259.598 437.264C260.287 437.264 260.891 437.428 261.408 437.756C261.928 438.085 262.332 438.545 262.621 439.138C262.912 439.732 263.058 440.426 263.058 441.222C263.058 442.01 262.912 442.7 262.621 443.29C262.332 443.88 261.928 444.339 261.408 444.667C260.891 444.995 260.287 445.159 259.598 445.159ZM259.598 444.105C260.122 444.105 260.553 443.971 260.891 443.702C261.229 443.434 261.479 443.081 261.641 442.643C261.804 442.206 261.885 441.732 261.885 441.222C261.885 440.711 261.804 440.236 261.641 439.795C261.479 439.354 261.229 438.998 260.891 438.726C260.553 438.454 260.122 438.318 259.598 438.318C259.074 438.318 258.643 438.454 258.305 438.726C257.967 438.998 257.717 439.354 257.555 439.795C257.392 440.236 257.311 440.711 257.311 441.222C257.311 441.732 257.392 442.206 257.555 442.643C257.717 443.081 257.967 443.434 258.305 443.702C258.643 443.971 259.074 444.105 259.598 444.105ZM267.952 445.159C267.236 445.159 266.619 444.99 266.102 444.652C265.585 444.314 265.187 443.848 264.909 443.255C264.631 442.662 264.491 441.984 264.491 441.222C264.491 440.446 264.634 439.762 264.919 439.168C265.207 438.572 265.608 438.106 266.122 437.771C266.639 437.433 267.242 437.264 267.932 437.264C268.469 437.264 268.952 437.364 269.383 437.562C269.814 437.761 270.167 438.04 270.442 438.398C270.717 438.756 270.888 439.173 270.954 439.651H269.781C269.692 439.303 269.493 438.994 269.184 438.726C268.88 438.454 268.469 438.318 267.952 438.318C267.494 438.318 267.093 438.437 266.748 438.676C266.407 438.911 266.14 439.245 265.948 439.675C265.759 440.103 265.665 440.605 265.665 441.182C265.665 441.772 265.757 442.286 265.943 442.723C266.132 443.161 266.397 443.5 266.738 443.742C267.083 443.984 267.488 444.105 267.952 444.105C268.256 444.105 268.533 444.052 268.782 443.946C269.03 443.84 269.241 443.688 269.413 443.489C269.586 443.29 269.708 443.051 269.781 442.773H270.954C270.888 443.223 270.724 443.629 270.462 443.991C270.204 444.349 269.861 444.634 269.433 444.846C269.009 445.055 268.515 445.159 267.952 445.159ZM275.772 445.159C275.056 445.159 274.439 444.99 273.922 444.652C273.405 444.314 273.008 443.848 272.729 443.255C272.451 442.662 272.312 441.984 272.312 441.222C272.312 440.446 272.454 439.762 272.739 439.168C273.028 438.572 273.429 438.106 273.942 437.771C274.459 437.433 275.063 437.264 275.752 437.264C276.289 437.264 276.773 437.364 277.204 437.562C277.635 437.761 277.988 438.04 278.263 438.398C278.538 438.756 278.708 439.173 278.775 439.651H277.601C277.512 439.303 277.313 438.994 277.005 438.726C276.7 438.454 276.289 438.318 275.772 438.318C275.314 438.318 274.913 438.437 274.569 438.676C274.227 438.911 273.961 439.245 273.768 439.675C273.579 440.103 273.485 440.605 273.485 441.182C273.485 441.772 273.578 442.286 273.763 442.723C273.952 443.161 274.217 443.5 274.559 443.742C274.903 443.984 275.308 444.105 275.772 444.105C276.077 444.105 276.354 444.052 276.602 443.946C276.851 443.84 277.061 443.688 277.233 443.489C277.406 443.29 277.528 443.051 277.601 442.773H278.775C278.708 443.223 278.544 443.629 278.282 443.991C278.024 444.349 277.681 444.634 277.253 444.846C276.829 445.055 276.335 445.159 275.772 445.159ZM285.302 441.878V437.364H286.476V445H285.302V443.707H285.223C285.044 444.095 284.765 444.425 284.388 444.697C284.01 444.965 283.532 445.099 282.956 445.099C282.479 445.099 282.054 444.995 281.683 444.786C281.312 444.574 281.02 444.256 280.808 443.832C280.596 443.404 280.49 442.866 280.49 442.216V437.364H281.663V442.136C281.663 442.693 281.819 443.137 282.131 443.469C282.445 443.8 282.846 443.966 283.334 443.966C283.625 443.966 283.922 443.891 284.224 443.742C284.528 443.593 284.784 443.364 284.989 443.056C285.198 442.748 285.302 442.355 285.302 441.878ZM288.625 445V437.364H289.758V438.517H289.838C289.977 438.139 290.229 437.833 290.593 437.597C290.958 437.362 291.369 437.244 291.826 437.244C291.913 437.244 292.02 437.246 292.15 437.249C292.279 437.253 292.377 437.258 292.443 437.264V438.457C292.403 438.447 292.312 438.433 292.169 438.413C292.03 438.389 291.883 438.378 291.727 438.378C291.356 438.378 291.024 438.456 290.733 438.612C290.444 438.764 290.216 438.976 290.047 439.248C289.881 439.516 289.798 439.823 289.798 440.168V445H288.625ZM296.803 445.159C296.067 445.159 295.432 444.997 294.899 444.672C294.368 444.344 293.959 443.886 293.671 443.3C293.386 442.71 293.243 442.024 293.243 441.241C293.243 440.459 293.386 439.77 293.671 439.173C293.959 438.573 294.36 438.106 294.874 437.771C295.391 437.433 295.994 437.264 296.684 437.264C297.081 437.264 297.474 437.33 297.862 437.463C298.25 437.596 298.603 437.811 298.921 438.109C299.239 438.404 299.493 438.795 299.681 439.283C299.87 439.77 299.965 440.37 299.965 441.082V441.58H294.078V440.565H298.772C298.772 440.134 298.685 439.75 298.513 439.412C298.344 439.074 298.102 438.807 297.787 438.612C297.476 438.416 297.108 438.318 296.684 438.318C296.216 438.318 295.812 438.434 295.471 438.666C295.132 438.895 294.872 439.193 294.69 439.561C294.508 439.929 294.417 440.323 294.417 440.744V441.42C294.417 441.997 294.516 442.486 294.715 442.887C294.917 443.285 295.197 443.588 295.555 443.797C295.913 444.002 296.329 444.105 296.803 444.105C297.111 444.105 297.39 444.062 297.638 443.976C297.89 443.886 298.107 443.754 298.289 443.578C298.472 443.399 298.613 443.177 298.712 442.912L299.846 443.23C299.726 443.615 299.526 443.953 299.244 444.244C298.962 444.533 298.614 444.758 298.2 444.92C297.786 445.08 297.32 445.159 296.803 445.159ZM304.633 445.159C303.997 445.159 303.435 444.998 302.948 444.677C302.461 444.352 302.079 443.895 301.804 443.305C301.529 442.711 301.392 442.01 301.392 441.202C301.392 440.4 301.529 439.704 301.804 439.114C302.079 438.524 302.462 438.068 302.953 437.746C303.443 437.425 304.01 437.264 304.653 437.264C305.15 437.264 305.543 437.347 305.831 437.513C306.123 437.675 306.345 437.861 306.498 438.07C306.653 438.275 306.774 438.444 306.86 438.577H306.96V434.818H308.133V445H307V443.827H306.86C306.774 443.966 306.652 444.142 306.493 444.354C306.333 444.562 306.106 444.75 305.811 444.915C305.516 445.078 305.124 445.159 304.633 445.159ZM304.792 444.105C305.263 444.105 305.661 443.982 305.985 443.737C306.31 443.489 306.557 443.146 306.726 442.708C306.895 442.267 306.98 441.759 306.98 441.182C306.98 440.612 306.897 440.113 306.731 439.685C306.565 439.254 306.32 438.92 305.995 438.681C305.671 438.439 305.27 438.318 304.792 438.318C304.295 438.318 303.881 438.446 303.549 438.701C303.221 438.953 302.974 439.296 302.809 439.73C302.646 440.161 302.565 440.645 302.565 441.182C302.565 441.725 302.648 442.219 302.814 442.663C302.983 443.104 303.231 443.455 303.559 443.717C303.891 443.976 304.302 444.105 304.792 444.105Z" fill="#455A64"/>
<path d="M223.678 57.7273C223.678 60.1858 223.212 62.2775 222.279 64.0021C221.355 65.7268 220.092 67.0442 218.493 67.9542C216.9 68.8569 215.109 69.3082 213.12 69.3082C211.117 69.3082 209.319 68.8532 207.726 67.9432C206.134 67.0331 204.875 65.7158 203.95 63.9911C203.026 62.2665 202.563 60.1785 202.563 57.7273C202.563 55.2687 203.026 53.1771 203.95 51.4524C204.875 49.7277 206.134 48.4141 207.726 47.5114C209.319 46.6013 211.117 46.1463 213.12 46.1463C215.109 46.1463 216.9 46.6013 218.493 47.5114C220.092 48.4141 221.355 49.7277 222.279 51.4524C223.212 53.1771 223.678 55.2687 223.678 57.7273ZM218.845 57.7273C218.845 56.1347 218.606 54.7917 218.129 53.6982C217.66 52.6046 216.995 51.7753 216.137 51.2102C215.278 50.6451 214.273 50.3626 213.12 50.3626C211.968 50.3626 210.963 50.6451 210.104 51.2102C209.245 51.7753 208.578 52.6046 208.1 53.6982C207.631 54.7917 207.396 56.1347 207.396 57.7273C207.396 59.3198 207.631 60.6629 208.1 61.7564C208.578 62.8499 209.245 63.6792 210.104 64.2443C210.963 64.8094 211.968 65.092 213.12 65.092C214.273 65.092 215.278 64.8094 216.137 64.2443C216.995 63.6792 217.66 62.8499 218.129 61.7564C218.606 60.6629 218.845 59.3198 218.845 57.7273ZM247.927 57.7273C247.927 60.1858 247.461 62.2775 246.528 64.0021C245.604 65.7268 244.341 67.0442 242.742 67.9542C241.149 68.8569 239.358 69.3082 237.369 69.3082C235.366 69.3082 233.568 68.8532 231.975 67.9432C230.383 67.0331 229.124 65.7158 228.199 63.9911C227.275 62.2665 226.812 60.1785 226.812 57.7273C226.812 55.2687 227.275 53.1771 228.199 51.4524C229.124 49.7277 230.383 48.4141 231.975 47.5114C233.568 46.6013 235.366 46.1463 237.369 46.1463C239.358 46.1463 241.149 46.6013 242.742 47.5114C244.341 48.4141 245.604 49.7277 246.528 51.4524C247.461 53.1771 247.927 55.2687 247.927 57.7273ZM243.094 57.7273C243.094 56.1347 242.855 54.7917 242.378 53.6982C241.909 52.6046 241.244 51.7753 240.386 51.2102C239.527 50.6451 238.522 50.3626 237.369 50.3626C236.217 50.3626 235.212 50.6451 234.353 51.2102C233.494 51.7753 232.827 52.6046 232.35 53.6982C231.88 54.7917 231.645 56.1347 231.645 57.7273C231.645 59.3198 231.88 60.6629 232.35 61.7564C232.827 62.8499 233.494 63.6792 234.353 64.2443C235.212 64.8094 236.217 65.092 237.369 65.092C238.522 65.092 239.527 64.8094 240.386 64.2443C241.244 63.6792 241.909 62.8499 242.378 61.7564C242.855 60.6629 243.094 59.3198 243.094 57.7273ZM251.458 69V46.4545H260.352C262.062 46.4545 263.519 46.7811 264.723 47.4343C265.926 48.0801 266.844 48.9792 267.475 50.1314C268.113 51.2763 268.433 52.5973 268.433 54.0945C268.433 55.5916 268.11 56.9126 267.464 58.0575C266.818 59.2024 265.882 60.0941 264.657 60.7326C263.439 61.3711 261.963 61.6903 260.231 61.6903H254.562V57.8704H259.461C260.378 57.8704 261.134 57.7126 261.729 57.397C262.33 57.0741 262.778 56.6301 263.072 56.065C263.372 55.4925 263.523 54.8357 263.523 54.0945C263.523 53.3459 263.372 52.6927 263.072 52.1349C262.778 51.5698 262.33 51.1332 261.729 50.8249C261.127 50.5094 260.363 50.3516 259.439 50.3516H256.224V69H251.458ZM283.759 52.9386C283.671 52.0505 283.293 51.3607 282.625 50.869C281.958 50.3772 281.051 50.1314 279.906 50.1314C279.128 50.1314 278.472 50.2415 277.936 50.4616C277.4 50.6745 276.989 50.9717 276.703 51.3533C276.424 51.735 276.285 52.168 276.285 52.6523C276.27 53.056 276.354 53.4083 276.538 53.7092C276.729 54.0101 276.989 54.2706 277.319 54.4908C277.65 54.7036 278.031 54.8907 278.464 55.0522C278.897 55.2063 279.36 55.3384 279.851 55.4485L281.877 55.9329C282.86 56.1531 283.763 56.4466 284.585 56.8136C285.407 57.1805 286.119 57.6319 286.721 58.1676C287.322 58.7034 287.788 59.3345 288.119 60.0611C288.456 60.7876 288.629 61.6206 288.636 62.56C288.629 63.9397 288.276 65.136 287.579 66.1488C286.889 67.1542 285.891 67.9358 284.585 68.4936C283.286 69.044 281.719 69.3192 279.884 69.3192C278.064 69.3192 276.479 69.0404 275.129 68.4826C273.786 67.9248 272.736 67.0992 271.98 66.0057C271.232 64.9048 270.839 63.5434 270.802 61.9215H275.415C275.466 62.6774 275.683 63.3086 276.064 63.815C276.453 64.314 276.971 64.692 277.617 64.9489C278.27 65.1984 279.007 65.3232 279.829 65.3232C280.637 65.3232 281.337 65.2057 281.932 64.9709C282.534 64.736 283 64.4094 283.33 63.9911C283.66 63.5728 283.825 63.0921 283.825 62.549C283.825 62.0426 283.675 61.617 283.374 61.272C283.08 60.9271 282.647 60.6335 282.075 60.3913C281.51 60.1491 280.816 59.929 279.994 59.7308L277.54 59.1143C275.639 58.652 274.138 57.9291 273.037 56.9457C271.936 55.9622 271.389 54.6375 271.397 52.9716C271.389 51.6065 271.753 50.4139 272.487 49.3938C273.228 48.3737 274.244 47.5774 275.536 47.005C276.828 46.4325 278.295 46.1463 279.939 46.1463C281.613 46.1463 283.073 46.4325 284.321 47.005C285.576 47.5774 286.552 48.3737 287.249 49.3938C287.946 50.4139 288.306 51.5955 288.328 52.9386H283.759ZM297.358 46.4545L296.928 62.2408H292.899L292.459 46.4545H297.358ZM294.914 69.2862C294.187 69.2862 293.563 69.0294 293.042 68.5156C292.521 67.9946 292.264 67.3707 292.272 66.6442C292.264 65.925 292.521 65.3085 293.042 64.7947C293.563 64.281 294.187 64.0241 294.914 64.0241C295.611 64.0241 296.224 64.281 296.752 64.7947C297.281 65.3085 297.548 65.925 297.556 66.6442C297.548 67.1286 297.42 67.5726 297.17 67.9762C296.928 68.3725 296.609 68.6918 296.213 68.9339C295.816 69.1688 295.383 69.2862 294.914 69.2862Z" fill="#455A64"/>
<path d="M174.02 288.785C174.02 288.785 179.98 253.791 182.501 246.884C184.244 242.111 191.362 230.084 196.445 221.158C197.469 219.359 204.031 214.995 207.18 213.33C211.421 211.088 219.405 214.701 219.987 223.919C220.229 227.754 213.712 232.12 211.889 236.149C209.33 241.806 209.158 249.167 208.947 250.348C208.586 252.371 222.718 268.01 222.101 273.968C221.483 279.926 205.103 300.381 201.554 301.557C198.004 302.734 174.109 294.563 174.02 288.785Z" fill="#FF6E6A"/>
<path d="M203.114 228.47C206.301 230.816 211.401 232.218 214.149 232.856C216.72 229.815 220.163 226.73 219.983 223.918C219.402 214.705 211.417 211.089 207.177 213.328C205.009 214.475 201.232 216.902 198.754 218.884C198.754 218.884 198.575 225.135 203.114 228.47Z" fill="#EBEBEB"/>
<path d="M216.349 215.53C216.415 215.494 216.48 215.585 216.426 215.637C215.008 216.972 213.636 218.372 212.352 219.837C211.183 221.172 210.099 222.575 209.941 224.406C209.932 224.516 209.77 224.513 209.769 224.401C209.741 222.624 210.225 220.752 211.276 219.302C212.551 217.541 214.493 216.55 216.349 215.53Z" fill="#263238"/>
<path d="M212.023 212.305C212.087 212.268 212.154 212.36 212.1 212.412C211.019 213.442 209.791 214.906 208.403 216.649C207.411 217.895 205.67 219.741 206.375 221.463C206.496 221.76 206.325 221.794 206.147 221.525C205.073 219.908 206.177 217.841 207.129 216.457C208.384 214.633 210.133 213.399 212.023 212.305Z" fill="#263238"/>
<path opacity="0.1" d="M201.558 301.56C205.107 300.38 221.479 279.928 222.1 273.973C222.573 269.419 214.452 259.235 210.742 253.766L180.014 256.78C177.295 269.539 174.019 288.781 174.019 288.781C174.109 294.564 198.005 302.732 201.558 301.56Z" fill="black"/>
<path d="M116.337 301.483C116.337 301.483 86.514 298.809 85.447 300.939C84.751 302.33 91.328 320.098 95.071 325.99C98.814 331.882 122.834 354.53 129.191 359.518L116.337 301.483Z" fill="#FF6E6A"/>
<path opacity="0.1" d="M104.18 325.758C106.719 329.754 118.485 340.94 126.633 347.943L116.999 304.487C109.536 303.51 94.226 301.69 93.586 303.156C93.031 304.413 100.594 320.113 104.18 325.758Z" fill="black"/>
<path d="M144.956 268.94C144.972 268.204 138.373 246.616 148.128 233.185C149.935 230.697 182.769 261.127 182.769 261.127L144.956 268.94Z" fill="#FF6E6A"/>
<path opacity="0.1" d="M151.186 267.653L181.477 261.396C178.316 258.482 155.188 237.261 153.823 239.132C146.505 249.205 150.568 264.946 151.186 267.653Z" fill="black"/>
<path d="M235.911 301.293C235.911 301.293 225.284 273.023 206.859 259.371C204.574 257.678 160.319 259.189 151.524 261.38C149.018 262.005 120.116 288.261 111.866 305.203C110.501 308.005 117.195 339.092 127.989 357.62C130.664 362.211 178.636 403.534 209.986 410.526C215.905 411.846 290.849 409.476 308.854 397.07C326.859 384.664 358.248 339.561 360.168 326.971C362.088 314.38 317.294 276.308 302.055 276.312C286.816 276.316 235.911 301.293 235.911 301.293Z" fill="#FF6E6A"/>
<path d="M167.909 267.535C171.518 262.106 178.753 262.979 185.086 267.188C190.215 270.597 193.31 277.301 189.846 282.511C186.382 287.721 178.086 286.852 173.27 283.651C168.455 280.45 163.991 273.43 167.909 267.535Z" fill="#263238"/>
<path d="M168.89 268.94C172.282 263.837 179.083 264.657 185.036 268.614C189.857 271.819 192.766 278.12 189.511 283.018C186.255 287.916 178.457 287.099 173.93 284.09C169.402 281.08 165.206 274.481 168.89 268.94Z" fill="white"/>
<path d="M173.778 270.973C176.434 266.978 181.758 267.62 186.417 270.718C190.191 273.227 192.468 278.159 189.92 281.993C187.371 285.827 181.266 285.187 177.723 282.832C174.179 280.476 170.894 275.31 173.778 270.973Z" fill="#263238"/>
<path d="M169.964 272.402C171.17 270.588 173.588 270.879 175.703 272.286C177.417 273.425 178.451 275.665 177.294 277.406C176.137 279.147 173.364 278.857 171.755 277.787C170.146 276.717 168.655 274.371 169.964 272.402Z" fill="white"/>
<path d="M143.67 305.447C137.444 311.206 138.733 318.88 143.896 324.462C148.078 328.983 156.043 330.181 162.018 324.655C167.993 319.128 166.67 310.285 162.743 306.04C158.817 301.795 150.43 299.194 143.67 305.447Z" fill="#263238"/>
<path d="M145.352 306.063C139.5 311.476 140.711 318.69 145.564 323.937C149.495 328.187 156.982 329.313 162.599 324.118C168.215 318.923 166.971 310.61 163.28 306.62C159.589 302.63 151.706 300.186 145.352 306.063Z" fill="white"/>
<path d="M149.946 308.328C145.365 312.565 146.313 318.212 150.112 322.32C153.189 325.647 159.05 326.528 163.447 322.462C167.843 318.395 166.87 311.888 163.98 308.764C161.091 305.64 154.92 303.727 149.946 308.328Z" fill="#263238"/>
<path d="M144.806 311.146C142.726 313.07 143.156 315.634 144.882 317.5C146.279 319.011 148.941 319.411 150.937 317.564C152.934 315.717 152.491 312.762 151.179 311.344C149.867 309.926 147.065 309.057 144.806 311.146Z" fill="white"/>
<path d="M168.933 296.522C169.549 296.876 174.181 295.04 174.474 294.648C174.763 294.261 175.247 289.236 174.749 288.724C174.257 288.216 171.684 291.229 171.081 292.039C170.473 292.853 168.319 296.179 168.933 296.522Z" fill="#263238"/>
<path d="M180.661 289.194C181.049 290.347 181.42 291.504 181.677 292.668C181.796 293.247 181.91 293.838 181.892 294.38C181.885 294.643 181.819 294.903 181.734 295.001C181.645 295.098 181.421 295.233 181.198 295.284C180.728 295.41 180.156 295.365 179.598 295.298C179.034 295.219 178.466 295.089 177.902 294.927C176.778 294.608 175.639 294.209 174.571 293.743L172.59 292.878L173.802 294.672C174.601 295.854 175.325 297.141 175.91 298.441C176.202 299.093 176.453 299.76 176.607 300.43C176.745 301.091 176.826 301.781 176.607 302.311L176.514 302.499L176.396 302.668C176.294 302.783 176.182 302.893 176.058 302.995C175.807 303.196 175.515 303.368 175.2 303.506C174.569 303.788 173.863 303.946 173.149 304.06C171.713 304.277 170.226 304.288 168.745 304.205C170.195 304.54 171.692 304.703 173.208 304.636C173.966 304.601 174.731 304.486 175.485 304.231C176.226 303.96 177.004 303.576 177.463 302.706C177.861 301.861 177.8 300.992 177.669 300.216C177.523 299.433 177.278 298.696 176.994 297.983C176.41 296.559 175.674 295.251 174.836 293.963L174.067 294.892C175.232 295.368 176.387 295.776 177.609 296.066C178.218 296.208 178.841 296.318 179.482 296.375C180.124 296.424 180.793 296.422 181.487 296.184C181.836 296.051 182.168 295.879 182.45 295.494C182.699 295.078 182.681 294.7 182.671 294.365C182.616 293.693 182.44 293.095 182.234 292.509C181.814 291.345 181.282 290.243 180.661 289.194Z" fill="#263238"/>
<path d="M190.771 268.57C192.759 265.606 194.841 262.715 196.988 259.873C199.138 257.035 201.32 254.22 203.629 251.511C204.747 250.126 205.922 248.789 207.081 247.439C208.266 246.111 209.451 244.783 210.661 243.477C213.052 240.836 215.578 238.326 218.087 235.785C216.742 236.956 215.386 238.121 214.086 239.345C212.792 240.575 211.503 241.813 210.261 243.097C207.749 245.639 205.388 248.326 203.078 251.052C200.806 253.811 198.607 256.631 196.545 259.549C195.515 261.009 194.514 262.488 193.534 263.981C192.584 265.494 191.627 267.003 190.771 268.57Z" fill="#263238"/>
<path d="M193.295 268.712C194.351 267.497 195.401 266.282 196.481 265.091C197.546 263.888 198.622 262.696 199.712 261.517C201.886 259.154 204.078 256.808 206.346 254.537C207.454 253.376 208.598 252.251 209.733 251.116L213.207 247.783L214.956 246.128L216.742 244.512C217.905 243.401 219.15 242.386 220.331 241.291C217.749 243.21 215.232 245.226 212.833 247.376C210.417 249.507 208.102 251.75 205.833 254.035C203.6 256.356 201.393 258.703 199.3 261.151C197.206 263.598 195.17 266.095 193.295 268.712Z" fill="#263238"/>
<path d="M194.312 270.679C195.307 269.779 196.296 268.877 197.309 268C198.31 267.11 199.312 266.224 200.333 265.359C202.371 263.624 204.402 261.884 206.477 260.196C208.543 258.498 210.628 256.822 212.731 255.166C214.826 253.499 216.966 251.892 219.077 250.234C217.938 250.942 216.811 251.672 215.693 252.413C214.59 253.176 213.482 253.934 212.398 254.725C210.21 256.282 208.105 257.949 206.021 259.641C203.95 261.349 201.923 263.111 199.966 264.949C198.008 266.785 196.088 268.665 194.312 270.679Z" fill="#263238"/>
<path d="M149.424 335.699C147.891 337.298 146.457 338.987 145.018 340.671C143.611 342.381 142.226 344.111 140.876 345.868C138.177 349.383 135.632 353.016 133.193 356.717C130.794 360.444 128.468 364.221 126.355 368.118C125.277 370.054 124.272 372.029 123.275 374.007C122.77 374.993 122.311 376.001 121.849 377.007L120.471 380.028C122.54 376.113 124.585 372.193 126.836 368.388C127.936 366.472 129.083 364.583 130.224 362.692C131.402 360.824 132.559 358.941 133.793 357.109C136.174 353.387 138.719 349.773 141.316 346.197C143.917 342.625 146.604 339.112 149.424 335.699Z" fill="#263238"/>
<path d="M150.51 338.641C148.117 341.838 145.91 345.17 143.784 348.551C141.654 351.93 139.672 355.4 137.738 358.896C135.847 362.415 134.03 365.976 132.369 369.61C130.679 373.23 129.189 376.942 127.819 380.689C128.67 378.882 129.413 377.032 130.295 375.242L131.552 372.53L132.868 369.847C133.74 368.056 134.651 366.285 135.548 364.507C136.48 362.746 137.396 360.978 138.368 359.239C140.243 355.725 142.229 352.27 144.253 348.837C145.262 347.119 146.291 345.412 147.338 343.715C148.37 342.008 149.438 340.324 150.51 338.641Z" fill="#263238"/>
<path d="M153.213 339.132C151.503 341.989 149.986 344.956 148.533 347.951C147.085 350.949 145.749 354 144.459 357.07C143.227 360.163 142.002 363.26 140.93 366.413C140.38 367.984 139.877 369.571 139.364 371.154C138.878 372.746 138.414 374.344 137.97 375.947C139.134 372.829 140.247 369.698 141.449 366.602C142.626 363.497 143.842 360.407 145.123 357.344C146.354 354.26 147.695 351.223 149.032 348.183C149.695 346.66 150.388 345.151 151.087 343.644C151.773 342.129 152.491 340.631 153.213 339.132Z" fill="#263238"/>
<path opacity="0.1" d="M178.622 320.023C180.343 319.124 182.076 318.348 183.784 317.569C184.625 317.154 185.485 316.796 186.288 316.359C187.08 315.938 187.902 315.492 188.452 315.006C188.961 314.575 189.358 313.797 189.741 312.989C190.135 312.184 190.444 311.311 190.788 310.443C191.442 308.692 192.063 306.9 192.804 305.105C192.881 307.051 192.68 308.974 192.287 310.876C192.111 311.834 191.822 312.769 191.489 313.719C191.127 314.64 190.71 315.651 189.789 316.493C188.897 317.249 188.001 317.668 187.088 318.069C186.17 318.44 185.259 318.773 184.322 319.027C182.46 319.55 180.566 319.921 178.622 320.023Z" fill="black"/>
<path d="M358.916 331.237C368.255 312.158 378.655 283.741 369.533 261.956C360.411 240.171 311.08 204.016 303.461 182.312C295.842 160.609 303.657 149.557 296.803 148.277C293.292 147.621 285.696 166.179 289.413 184.432C294.484 209.333 345.264 254.828 351.409 269.069C357.553 283.31 351.066 295.421 342.884 307.877L358.916 331.237Z" fill="#FF6E6A"/>
<path d="M263.744 265.245C263.412 265.229 263.076 265.165 262.746 265.049C260.924 264.407 259.967 262.411 260.607 260.589C260.658 260.443 265.721 245.691 266.069 221.349C266.278 206.77 258.624 200.689 250.52 194.25C242.999 188.274 235.222 182.094 235.819 169.524C236.297 159.47 243.475 154.814 249.808 150.706C256.024 146.674 261.895 142.865 263.184 134.202C265.984 115.381 249.123 97.7639 248.952 97.5889C247.606 96.2029 247.636 93.9879 249.021 92.6409C250.404 91.2949 252.618 91.322 253.966 92.704C254.762 93.52 273.424 112.946 270.108 135.233C268.353 147.02 260.183 152.32 253.617 156.58C247.107 160.803 243.103 163.703 242.811 169.858C242.384 178.847 247.896 183.227 254.874 188.771C263.094 195.303 273.325 203.431 273.067 221.45C272.701 247.04 267.433 262.276 267.209 262.912C266.685 264.405 265.248 265.317 263.744 265.245Z" fill="#455A64"/>
<path d="M254.079 373.197C259.215 373.197 260.663 369.74 260.663 369.74C260.663 369.74 263.136 373.767 267.332 372.491C271.48 371.229 271.034 366.119 271.034 366.119C271.034 366.119 273.534 369.481 278.043 367.273C281.671 365.496 279.758 360.029 279.758 360.029C279.758 360.029 283.179 363.596 288.036 360.726C290.042 359.54 289.802 355.783 290.134 355.527C301.238 346.997 323.741 329.07 312.82 284.796C304.52 251.146 272.044 240.593 243.767 242.004C243.336 242.026 243.115 239.709 240.059 239.709C237.185 239.709 236.349 241.663 236.349 241.663C236.349 241.663 234.474 239.247 231.288 240.767C228.105 242.285 228.896 245.628 228.896 245.628C227.769 245.027 225.971 242.175 221.858 243.771C217.765 245.36 218.526 249.744 218.526 249.744C218.526 249.744 215.885 247.59 212.454 249.577C211.557 250.096 211.32 253.875 210.923 254.51C206.01 248.799 203.24 255.378 204.385 257.416C205.926 260.159 202.087 261.897 201.358 262.622C183.995 279.901 178.938 316.183 191.749 339.163C208.104 368.502 234.277 371.128 248.649 370.401C248.647 370.399 250.003 373.197 254.079 373.197Z" fill="#455A64"/>
<path d="M270.219 354.523C253.663 346.035 243.353 328.079 237.311 311.103C230.886 293.049 229.239 273.632 232.401 254.746C232.638 253.329 230.47 252.72 230.231 254.148C226.897 274.057 228.692 294.551 235.791 313.481C242.129 330.379 252.519 347.975 269.083 356.466C270.37 357.126 271.51 355.185 270.219 354.523Z" fill="#37474F"/>
<path d="M250.616 360.312C222.989 335.404 209.023 299.126 212.693 262.102C212.836 260.662 210.584 260.672 210.442 262.102C206.719 299.659 221.003 336.64 249.024 361.904C250.097 362.871 251.694 361.284 250.616 360.312Z" fill="#37474F"/>
<path d="M290.281 355.947C308.314 345.437 314.259 324.506 314.49 304.678C314.496 304.197 314.243 303.891 313.913 303.729C314.512 302.74 315.026 301.671 315.422 300.511C315.892 299.138 313.719 298.548 313.252 299.912C311.102 306.195 305.136 309.814 298.553 308.77C298.485 308.759 298.43 308.778 298.366 308.777C298.685 307.163 298.927 305.53 299.055 303.877C299.144 303.894 299.223 303.925 299.327 303.921C306.13 303.631 311.931 299.399 314.356 293.052C314.629 292.339 314.155 291.859 313.574 291.748C313.551 291.655 313.541 291.563 313.489 291.468C313.475 291.441 313.459 291.415 313.445 291.388C313.697 291.141 313.859 290.798 313.787 290.366C310.016 268.012 292.632 256.122 272.439 249.884C272.565 249.812 272.686 249.731 272.812 249.66C274.073 248.947 272.94 247.002 271.677 247.717C270.816 248.204 269.977 248.716 269.134 249.224C269.092 249.247 269.051 249.267 269.014 249.296C260.022 254.733 252 261.396 244.999 269.159C244.766 269.28 244.609 269.478 244.506 269.7C243.046 271.34 241.616 273.011 240.248 274.748C240.195 272.687 240.188 270.621 240.279 268.545C240.614 268.537 240.949 268.391 241.186 268.041C247.713 258.397 256.525 250.97 267.087 246.085C268.4 245.478 267.258 243.537 265.951 244.142C255.676 248.895 247.091 256.061 240.494 265.182C240.965 259.454 241.997 253.69 243.648 247.941C244.048 246.546 241.877 245.951 241.478 247.343C229.729 288.261 248.234 329.917 281.966 354.235C283.142 355.083 284.267 353.132 283.102 352.292C282.963 352.191 282.831 352.083 282.691 351.981C299.886 344.649 310.429 327.944 309.467 309.106C309.456 308.898 309.391 308.728 309.303 308.579C310.37 307.869 311.345 307.02 312.214 306.047C311.736 325.083 305.837 344.953 288.046 354.636C287.894 354.719 287.781 354.821 287.694 354.933C287.039 354.812 286.385 354.691 285.731 354.57C284.315 354.308 283.708 356.477 285.133 356.74L288.929 357.442C289.901 357.623 290.473 356.656 290.281 355.947ZM269.826 251.454C288.847 256.934 305.499 267.114 310.689 286.688C300.451 270.507 283.014 255.683 263.444 255.631C265.507 254.156 267.649 252.782 269.826 251.454ZM260.319 257.989C280.079 256.443 297.786 270.963 308.256 287.069C294.956 271.404 275.628 262.428 254.79 262.527C256.574 260.945 258.43 259.448 260.319 257.989ZM248.243 268.847C249.599 267.412 251.007 266.033 252.439 264.681C252.589 264.758 252.759 264.81 252.97 264.803C276.37 264.1 298.066 275.146 311.141 294.568C311.038 294.742 310.946 294.924 310.836 295.093C295.057 277.392 271.867 267.7 248.243 268.847ZM240.618 281.013C241.679 280.978 242.74 280.942 243.801 280.906C245.245 280.857 245.252 278.607 243.801 278.656C242.682 278.693 241.564 278.731 240.445 278.768C240.415 278.338 240.37 277.91 240.346 277.479C240.685 277.475 241.027 277.34 241.279 277.011C242.812 275.012 244.433 273.101 246.094 271.232C270.015 269.407 293.539 278.923 309.446 296.906C308.669 297.765 307.798 298.529 306.844 299.177C306.786 299.089 306.735 299 306.639 298.92C290.135 285.15 269.36 277.95 247.868 278.666C246.424 278.714 246.417 280.965 247.868 280.916C268.654 280.223 288.798 287.055 304.815 300.326C303.622 300.881 302.348 301.275 301.022 301.489C300.966 301.228 300.814 300.98 300.531 300.797C282.845 289.327 262.144 283.877 241.104 285.155C240.906 283.781 240.749 282.399 240.618 281.013ZM292.274 319.176C291.49 320.59 290.609 321.958 289.63 323.269C281.828 319.508 275.107 314.141 269.81 307.599C269.74 307.282 269.558 307.007 269.236 306.894C264.893 301.352 261.558 294.996 259.463 288.053C260.61 288.202 261.755 288.364 262.894 288.554C262.901 288.571 262.898 288.587 262.906 288.604C269.08 301.853 279.289 312.468 292.274 319.176ZM286.669 313.191C290.03 312.976 293.216 311.788 295.905 309.763C295.294 312.317 294.429 314.802 293.299 317.173C290.988 315.973 288.783 314.635 286.669 313.191ZM285.843 327.006C278.597 330.301 270.633 329.644 263.985 325.466C264.724 324.211 265.609 323.067 266.64 322.068C271.859 326.451 278.686 327.103 284.707 323.756C284.875 323.663 284.995 323.546 285.084 323.418C286.1 323.993 287.136 324.542 288.193 325.059C287.635 325.713 287.055 326.326 286.463 326.92C286.266 326.897 286.06 326.907 285.843 327.006ZM268.38 320.6C270.454 319.097 272.922 318.064 275.672 317.615C275.94 317.571 276.114 317.447 276.247 317.296C278.355 319.056 280.603 320.661 282.955 322.127C278.049 324.576 272.628 324.035 268.38 320.6ZM269.583 295.156C269.454 295.204 269.359 295.278 269.264 295.353C267.951 293.328 266.718 291.239 265.625 289.048C267.867 289.489 270.082 290.041 272.284 290.645C272.444 292.564 271.452 294.462 269.583 295.156ZM274.55 291.275C277.685 292.22 280.775 293.321 283.81 294.582C283.003 298.874 279.963 302.33 275.701 303.503C275.643 303.519 275.608 303.554 275.557 303.576C273.728 301.568 272.041 299.429 270.477 297.188C272.863 296.169 274.521 293.871 274.55 291.275ZM277.257 305.371C281.644 303.806 284.985 300.06 285.94 295.48C287.308 296.088 288.66 296.739 290.003 297.412C289.991 297.448 289.968 297.47 289.959 297.509C288.763 302.824 284.808 306.543 279.511 307.533C278.744 306.828 277.988 306.111 277.257 305.371ZM241.47 287.39C244.529 287.215 247.575 287.206 250.606 287.322C247.255 289.349 244.732 292.481 243.434 296.19C242.638 293.293 241.974 290.359 241.47 287.39ZM244.304 299.174C244.668 299.11 244.996 298.879 245.111 298.404C246.24 293.761 249.362 290.118 253.737 288.218C254.094 288.063 254.261 287.808 254.304 287.531C255.282 287.606 256.26 287.68 257.234 287.784C257.172 287.972 257.146 288.178 257.218 288.421C258.265 291.943 259.627 295.325 261.266 298.542C255.421 298.64 250.004 301.794 247.049 306.86C246.025 304.336 245.111 301.772 244.304 299.174ZM248.141 309.44C248.238 309.353 248.329 309.249 248.399 309.105C251.044 303.672 256.499 300.494 262.487 300.817C263.735 303.025 265.114 305.149 266.623 307.172C260.133 308.515 255.045 313.14 253.308 319.621C251.383 316.323 249.669 312.918 248.141 309.44ZM254.822 322.133C254.983 322 255.117 321.823 255.169 321.551C256.435 314.893 261.477 310.022 268.187 309.169C268.917 310.066 269.679 310.936 270.46 311.79C264.338 314.55 258.07 318.247 256.863 325.243C256.17 324.213 255.477 323.184 254.822 322.133ZM258.342 327.382C258.657 327.212 258.909 326.921 258.946 326.473C259.527 319.411 266.329 316.044 272.102 313.504C272.815 314.223 273.553 314.918 274.303 315.601C267.108 317.074 261.599 322.436 259.933 329.553C259.396 328.834 258.861 328.113 258.342 327.382ZM274.212 334.455C269.737 335.175 265.459 333.984 261.877 331.256C262.109 329.927 262.473 328.663 262.966 327.482C268.816 331.133 275.577 332.182 282.094 330.626C279.91 332.195 277.577 333.52 275.142 334.705C274.903 334.509 274.59 334.395 274.212 334.455ZM264.693 335.469C266.508 336.231 268.42 336.68 270.388 336.815C269.289 337.264 268.179 337.702 267.056 338.129C266.246 337.258 265.466 336.367 264.693 335.469ZM268.727 339.887C277.395 336.525 285.381 332.544 291.179 324.923C294.391 320.702 296.601 315.942 297.878 310.912C297.907 310.919 297.923 310.936 297.954 310.941C299.922 311.253 301.843 311.223 303.657 310.884C300.876 326.902 289.9 339.526 274.235 344.251C273.982 344.327 273.816 344.473 273.687 344.64C271.986 343.098 270.32 341.524 268.727 339.887ZM280.852 350.325C280.775 350.355 280.726 350.407 280.662 350.447C278.878 349.081 277.123 347.681 275.435 346.217C291.816 341.035 303.439 327.557 306.013 310.486C306.026 310.399 306.005 310.326 306.002 310.245C306.424 310.095 306.83 309.913 307.234 309.727C307.9 327.689 297.662 343.72 280.852 350.325ZM283.545 310.889C283.537 310.888 283.531 310.892 283.523 310.891C282.872 310.385 282.219 309.883 281.589 309.354C286.775 307.862 290.709 303.79 292.038 298.453C293.706 299.337 295.356 300.266 296.98 301.253C296.953 302.901 296.812 304.535 296.584 306.152C293.164 309.788 288.515 311.466 283.545 310.889Z" fill="#37474F"/>
<path d="M237.907 360.158C238.027 360.097 238.106 360.015 238.185 359.935C239.237 360.474 240.515 359.081 239.514 358.19C214.723 336.133 202.386 303.789 206.052 270.802C206.212 269.365 203.96 269.376 203.801 270.802C203.711 271.609 203.636 272.415 203.567 273.22C198.252 273.6 193.46 275.878 189.887 279.852C188.921 280.926 190.508 282.523 191.478 281.443C194.62 277.948 198.726 275.868 203.405 275.489C203.282 277.474 203.212 279.456 203.199 281.433C196.855 282.735 191.174 285.624 186.342 289.958C185.261 290.927 186.857 292.514 187.933 291.549C192.341 287.595 197.464 285.014 203.193 283.737C203.212 285.012 203.248 286.286 203.313 287.555C196.383 288.678 190.226 291.985 185.439 297.139C184.454 298.199 186.042 299.795 187.03 298.73C191.476 293.944 197.069 290.944 203.45 289.811C203.501 290.51 203.554 291.208 203.619 291.904C196.435 293.907 190.03 297.536 184.611 302.665C183.557 303.663 185.15 305.252 186.203 304.256C191.265 299.465 197.185 296.105 203.866 294.183C204.036 295.656 204.225 297.127 204.457 298.588C204.259 298.563 204.052 298.57 203.834 298.664C195.913 302.1 189.429 307.79 184.926 315.149C184.168 316.387 186.114 317.519 186.869 316.285C191.151 309.287 197.293 303.987 204.792 300.692C205.034 302.044 205.302 303.39 205.597 304.728C205.38 304.752 205.16 304.824 204.96 305.011C196.523 312.898 191.97 323.566 192.089 335.112C192.104 336.559 194.354 336.563 194.339 335.112C194.228 324.314 198.382 314.468 206.136 307.011C206.622 308.997 207.183 310.96 207.784 312.911C201.176 320.55 197.301 329.593 196.305 339.656C195.343 339.603 194.683 341.104 195.702 341.783C203.982 347.303 213.902 348.663 223.364 345.59C223.806 345.446 224.027 345.119 224.101 344.762C225.086 346.069 226.106 347.354 227.154 348.618C218.074 353.976 207.637 353.558 198.904 347.425C197.716 346.591 196.59 348.541 197.768 349.368C207.214 356.001 218.856 356.331 228.654 350.345C229.854 351.729 231.098 353.081 232.372 354.409C225.184 358.42 217.155 359.36 209.164 357.092C207.768 356.696 207.173 358.867 208.566 359.262C217.296 361.74 226.191 360.615 234.002 356.069C234.788 356.852 235.591 357.622 236.404 358.384C230.222 361.473 223.637 362.713 216.736 362.146C215.292 362.027 215.3 364.279 216.736 364.397C224.163 365.009 231.284 363.553 237.907 360.158ZM201.624 327.142C203.319 322.948 205.646 319.022 208.594 315.431C210.163 320.092 212.073 324.631 214.288 329.026C209.929 329.667 205.626 329.026 201.634 327.144C201.63 327.142 201.627 327.143 201.624 327.142ZM200.849 329.237C205.418 331.312 210.18 331.954 215.155 331.162C215.234 331.149 215.283 331.112 215.35 331.088C216.267 332.811 217.253 334.5 218.269 336.172C211.821 337.355 205.493 336.684 199.414 334.313C199.796 332.586 200.276 330.893 200.849 329.237ZM198.07 340.613C198.319 340.434 198.507 340.162 198.543 339.783C198.649 338.689 198.805 337.613 198.986 336.545C205.433 339.023 212.151 339.596 218.959 338.329C219.173 338.289 219.327 338.197 219.454 338.086C220.603 339.888 221.816 341.652 223.078 343.386C222.977 343.39 222.88 343.385 222.767 343.421C214.281 346.177 205.62 345.174 198.07 340.613Z" fill="#37474F"/>
<path d="M225.597 312.027C216.627 292.785 218.295 271.442 220.143 250.889C220.273 249.447 218.021 249.456 217.893 250.889C216.003 271.922 214.489 293.5 223.654 313.163C224.265 314.475 226.206 313.333 225.597 312.027Z" fill="#37474F"/>
<path d="M237.338 250.452C237.656 247.605 237.973 244.758 238.29 241.91C238.45 240.473 236.198 240.484 236.04 241.91C235.722 244.758 235.405 247.605 235.087 250.452C234.927 251.889 237.179 251.878 237.338 250.452Z" fill="#37474F"/>
<path d="M271.052 365.902C253.429 358.043 239.608 343.79 232.47 325.838C231.941 324.508 229.764 325.088 230.3 326.436C237.648 344.913 251.737 359.737 269.916 367.845C271.227 368.431 272.374 366.492 271.052 365.902Z" fill="#37474F"/>
<path d="M281.502 358.782C263.964 345.343 250.125 327.896 240.917 307.822C240.314 306.507 238.374 307.649 238.974 308.958C248.359 329.415 262.509 347.042 280.367 360.726C281.515 361.605 282.637 359.652 281.502 358.782Z" fill="#37474F"/>
<path d="M239.517 304.031C239.517 302.583 237.267 302.581 237.267 304.031C237.266 305.479 239.517 305.482 239.517 304.031Z" fill="#37474F"/>
<path d="M230.639 306.174C224.259 286.669 223.458 266.116 228.349 246.183C228.694 244.777 226.524 244.177 226.179 245.585C221.198 265.885 221.969 286.903 228.469 306.773C228.918 308.143 231.092 307.556 230.639 306.174Z" fill="#37474F"/>
<path d="M227.795 317.533C227.795 316.085 225.544 316.082 225.544 317.533C225.544 318.981 227.795 318.984 227.795 317.533Z" fill="#37474F"/>
<path d="M247.25 368.528C247.984 368.909 248.739 369.26 249.535 369.55C250.898 370.047 251.485 367.873 250.133 367.38C247 366.238 244.329 364.187 242.417 361.454C241.593 360.276 239.641 361.399 240.474 362.59C240.642 362.83 240.823 363.054 240.999 363.284C236.356 365.394 231.442 366.168 226.325 365.642C224.886 365.494 224.896 367.745 226.325 367.892C231.976 368.473 237.424 367.474 242.524 365.049C243.25 365.79 244.048 366.441 244.881 367.047C243.075 367.657 241.206 368.035 239.295 368.178C237.86 368.286 237.848 370.537 239.295 370.429C242.068 370.222 244.687 369.578 247.25 368.528Z" fill="#37474F"/>
<path d="M206.532 266.716C206.816 264.783 207.099 262.851 207.382 260.918C207.444 260.497 207.284 260.159 207.039 259.913C209.189 259.139 210.888 257.467 211.653 255.201C212.117 253.826 209.944 253.236 209.483 254.603C208.846 256.491 207.113 257.912 205.117 258.108C203.689 258.248 203.674 260.5 205.117 260.358C205.148 260.355 205.177 260.346 205.208 260.343C204.926 262.268 204.644 264.193 204.361 266.118C204.154 267.534 206.322 268.146 206.532 266.716Z" fill="#37474F"/>
<path d="M250.257 97.404C252.94 97.404 255.115 95.229 255.115 92.546C255.115 89.863 252.94 87.688 250.257 87.688C247.574 87.688 245.399 89.863 245.399 92.546C245.399 95.229 247.574 97.404 250.257 97.404Z" fill="#C7C7C7"/>
<path d="M254.601 91.583C254.601 94.266 252.426 96.441 249.743 96.441C247.06 96.441 244.885 94.266 244.885 91.583C244.885 88.9 247.06 86.725 249.743 86.725C252.426 86.725 254.601 88.9 254.601 91.583Z" fill="#DBDBDB"/>
<path d="M192.395 343.961C192.395 343.961 210.444 313.393 215.263 307.841C218.593 304.004 230.908 297.212 238.839 290.686C240.438 289.371 243.073 283.641 246.609 283.209C251.371 282.627 258.513 292.521 255.769 301.341C253.025 310.161 239.792 318.749 238.734 320.51C237.676 322.271 245.3 341.923 242.598 347.268C239.896 352.614 217.297 365.881 213.562 365.714C209.827 365.547 190.417 349.391 192.395 343.961Z" fill="#FF6E6A"/>
<path d="M245.279 302.926C247.902 305.079 251.08 305.581 253.773 305.474C254.644 304.113 255.338 302.733 255.77 301.335C258.509 292.523 251.373 282.63 246.612 283.21C243.066 283.64 240.433 289.373 238.837 290.692C238.839 290.692 239.464 298.152 245.279 302.926Z" fill="#EBEBEB"/>
<path d="M252.591 286.236C252.648 286.188 252.731 286.264 252.687 286.325C251.564 287.916 250.498 289.561 249.531 291.253C248.651 292.794 247.868 294.385 248.078 296.21C248.091 296.32 247.932 296.349 247.908 296.24C247.526 294.504 247.628 292.573 248.369 290.943C249.269 288.964 250.975 287.605 252.591 286.236Z" fill="#263238"/>
<path d="M248.442 283.124C248.497 283.075 248.582 283.151 248.539 283.213C247.685 284.438 246.773 286.117 245.76 288.102C245.036 289.521 243.698 291.676 244.731 293.223C244.909 293.49 244.748 293.557 244.52 293.329C243.146 291.959 243.816 289.713 244.473 288.167C245.34 286.13 246.808 284.573 248.442 283.124Z" fill="#263238"/>
<path d="M201.257 329.232C200.776 330.563 200.18 331.816 199.545 333.045C198.918 334.278 198.224 335.469 197.523 336.654C196.797 337.824 196.068 338.991 195.277 340.121C194.495 341.259 193.681 342.368 192.794 343.468C193.122 342.088 193.667 340.791 194.263 339.536C194.854 338.276 195.534 337.067 196.241 335.877C196.972 334.701 197.723 333.539 198.556 332.428C199.379 331.314 200.252 330.229 201.257 329.232Z" fill="#263238"/>
<path d="M241.776 348.468C239.608 351.189 236.947 353.457 234.237 355.606C231.513 357.752 228.618 359.674 225.636 361.449C222.632 363.187 219.516 364.736 216.303 366.046C213.092 367.36 209.756 368.377 206.365 369.059C209.503 367.584 212.616 366.184 215.656 364.626C218.684 363.051 221.696 361.461 224.628 359.723C227.576 358.014 230.463 356.2 233.331 354.343C236.18 352.455 239.046 350.581 241.776 348.468Z" fill="#263238"/>
<path d="M221.534 362.599C221.048 363.499 220.442 364.316 219.792 365.091C219.145 365.87 218.429 366.587 217.684 367.272C216.175 368.613 214.485 369.811 212.562 370.511C213.308 369.809 214.064 369.171 214.805 368.509C215.539 367.842 216.29 367.202 217.016 366.529C218.496 365.214 219.942 363.869 221.534 362.599Z" fill="#263238"/>
<path d="M290.247 365.78C290.247 365.78 256.947 318.106 266.811 298.367C274.076 283.828 309.3 263.244 309.3 263.244C309.3 263.244 292.678 241.706 292.458 237.34C292.238 232.974 303.23 232.775 309.135 234.205C315.04 235.635 339.175 264.945 339.467 268.634C339.759 272.322 331.71 285.635 332.815 291.352C333.919 297.07 342.356 303.684 342.938 304.66C343.52 305.636 349.071 329.657 344.111 337.584C339.151 345.513 297.392 369.514 290.247 365.78Z" fill="#FF6E6A"/>
<path d="M301.49 252.744C310.745 253.807 315.812 243.618 317.205 240.282C313.843 237.009 310.86 234.622 309.131 234.204C303.235 232.778 292.237 232.972 292.459 237.34C292.596 240.049 297.66 247.476 301.49 252.744Z" fill="#EBEBEB"/>
<path d="M299.657 233.175C299.665 233.097 299.784 233.095 299.795 233.173C300.089 235.196 300.466 237.217 300.952 239.203C301.395 241.011 301.949 242.788 303.427 244.026C303.516 244.101 303.416 244.237 303.319 244.171C301.775 243.125 300.458 241.582 299.844 239.806C299.099 237.65 299.416 235.383 299.657 233.175Z" fill="#263238"/>
<path d="M294.251 233.802C294.258 233.725 294.377 233.722 294.389 233.8C294.624 235.35 295.142 237.286 295.805 239.528C296.279 241.131 296.817 243.738 298.721 244.169C299.049 244.243 298.975 244.411 298.637 244.402C296.601 244.351 295.489 242.158 294.873 240.507C294.061 238.331 294.054 236.085 294.251 233.802Z" fill="#263238"/>
<path d="M268.672 325.837C270.9 329.974 273.059 334.124 275.217 338.271C277.392 342.409 279.533 346.557 281.748 350.664C283.947 354.779 286.199 358.862 288.496 362.923C290.829 366.964 293.22 370.964 295.717 374.947C292.556 371.466 289.766 367.657 287.166 363.739C284.577 359.81 282.23 355.734 279.986 351.606C277.791 347.452 275.713 343.239 273.816 338.945C271.915 334.655 270.141 330.304 268.672 325.837Z" fill="#263238"/>
<path d="M333.596 293.633C336.192 296.686 338.81 299.702 341.658 302.401C342.019 302.731 342.382 303.058 342.75 303.373C343.134 303.705 343.449 303.92 343.944 304.462C344.754 305.446 345.068 306.491 345.369 307.507C345.923 309.556 346.085 311.59 346.234 313.617C346.432 317.672 346.269 321.693 345.896 325.691C345.524 329.686 344.973 333.662 344.111 337.586C344.145 333.572 344.26 329.585 344.338 325.606C344.392 321.63 344.466 317.654 344.239 313.729C344.136 311.776 343.975 309.805 343.541 307.979C343.335 307.081 343.048 306.156 342.596 305.575C342.441 305.356 341.972 304.946 341.619 304.604C341.256 304.241 340.903 303.871 340.555 303.498C337.813 300.485 335.517 297.162 333.596 293.633Z" fill="#263238"/>
<path d="M285.349 359.181C286.315 361.028 287.024 362.94 287.709 364.862C288.37 366.795 288.988 368.721 289.478 370.743C288.262 369.041 287.456 367.122 286.765 365.19C286.107 363.243 285.559 361.257 285.349 359.181Z" fill="#263238"/>
<path d="M345.253 322.746C346.26 324.007 346.952 325.43 347.517 326.903C347.785 327.645 348.021 328.404 348.171 329.188C348.323 329.966 348.425 330.783 348.286 331.587C348.01 330.831 347.709 330.128 347.423 329.408C347.128 328.694 346.86 327.972 346.581 327.25C346.057 325.793 345.541 324.331 345.253 322.746Z" fill="#263238"/>
</svg>
